<svg width="118" height="66" viewBox="0 0 102 66" fill="none" xmlns="http://www.w3.org/2000/svg">
    <style type="text/css">
        path {fill:#4CA3A3;}
    </style>
    <path d="M99.3074 4.82028L98.4441 3.26278L92.7216 6.43468L91.8244 4.81593L97.1619 1.85744L96.2889 0.282436L90.9514 3.24093L90.3597 2.17343L88.6884 3.09979L89.2801 4.16729L83.9514 7.12093L84.8244 8.69593L90.1531 5.74229L91.0504 7.36104L85.3279 10.5329L86.1912 12.0904L96.1837 6.55173L96.9548 7.94298L86.9623 13.4817L87.8353 15.0567L97.8278 9.51798L99.1373 11.8805C99.2392 12.0642 99.168 12.2867 98.9843 12.3885L98.9755 12.3934L95.7993 14.1539L96.7014 15.7814L100.079 13.9093C101.059 13.4691 101.493 12.3132 101.053 11.3333C101.013 11.241 100.96 11.1447 100.903 11.0621L99.5253 8.57709L100.943 7.79139L100.07 6.21639L98.6523 7.00209L97.8812 5.61084L99.3074 4.82028ZM85.3211 18.4863L83.8613 15.8525C84.1577 15.7683 84.4396 15.6578 84.7167 15.5385L84.9714 15.4202L84.0693 13.7927L83.8369 13.9101C83.1554 14.3107 82.3565 14.479 81.5695 14.4005L83.7307 13.2026L83.0032 11.8901L77.2807 15.062L77.0237 14.5982L82.3612 11.6397L81.6579 10.371L76.3204 13.3295L76.044 12.8307L81.7665 9.65883L81.0632 8.39008L78.7182 9.68988L78.6259 8.67729L76.8934 9.63759L76.9945 10.6453L72.077 13.371C71.8576 13.1609 71.5993 12.9838 71.3293 12.8475L71.2147 12.7852L69.4297 13.7746L69.9085 13.9782C70.0911 14.06 70.2611 14.1602 70.4145 14.2925L67.947 15.6602L68.6502 16.929L74.3727 13.7571L74.654 14.2646L69.3253 17.2182L70.0237 18.4782L75.3524 15.5246L75.6095 15.9883L69.887 19.1602L70.6145 20.4727L72.7845 19.2699C72.434 19.9789 71.8679 20.5672 71.163 20.9465L70.9491 21.0765L71.8512 22.704L72.0865 22.5507C72.3393 22.3877 72.5688 22.2033 72.7886 22.0014L74.9614 25.9214L74.0777 26.4112L74.8973 27.89L75.1248 27.7639C77.1343 26.7873 78.9973 25.5259 80.6584 24.0447L80.7916 23.9137L80.1951 22.8374C82.1857 23.2096 84.5048 22.5647 87.6548 20.8187L87.8823 20.6926L87.1015 19.2838L86.874 19.4099C86.5502 19.5894 86.2391 19.7504 85.9368 19.9065L86.6871 17.752L85.3211 18.4863ZM78.0121 16.3609L79.6309 15.4636C79.8737 15.5921 80.1155 15.6983 80.37 15.786L78.3225 16.9209L78.0121 16.3609ZM74.7396 18.1748L76.3321 17.2921L76.6425 17.8521L74.6213 18.9724C74.6866 18.7189 74.7287 18.4439 74.7396 18.1748ZM74.294 20.7552L82.029 16.4678L82.2958 16.949L74.5608 21.2364L74.294 20.7552ZM76.622 24.9552L76.1758 24.1502L79.1333 22.5109C79.2975 22.58 79.4655 22.6356 79.6423 22.6863C78.7446 23.5842 77.7294 24.3528 76.622 24.9552ZM75.2252 22.4352L82.9602 18.1478L83.2318 18.6378L75.4968 22.9252L75.2252 22.4352ZM84.0207 20.7627C83.1711 21.1078 82.2653 21.2896 81.3383 21.2887L84.4446 19.5669L84.0207 20.7627ZM9.69829 46.8943L7.98329 47.8449L8.80014 50.206L5.25639 52.1702L4.43954 49.8092L2.72454 50.7598L3.54139 53.1208L0.767638 54.6583L1.76674 56.4608L4.21674 55.1028L6.22539 60.9553L4.14289 62.1096L5.13229 63.8946L6.89979 62.9149L7.70494 65.3168L9.43744 64.3565L8.62354 61.9595L12.1673 59.9952L12.9987 62.3825L14.7137 61.4319L13.8823 59.0446L16.6998 57.4829L15.7104 55.6979L13.2166 57.0802L11.208 51.2276L13.2992 50.0685L12.3001 48.266L10.5239 49.2505L9.69829 46.8943ZM11.4841 58.0405L7.94914 59.9999L5.94049 54.1473L9.47549 52.1879L11.4841 58.0405ZM69.4102 23.8511L68.0014 24.632L65.494 20.1082L66.5615 19.5165L65.6497 17.8715L64.5822 18.4632L63.7334 16.932L62.0709 17.8535L62.9197 19.3847L59.6034 21.2229L58.7547 19.6916L57.0834 20.618L57.9322 22.1492L56.8472 22.7506L57.759 24.3956L58.844 23.7942L61.3514 28.318L59.9339 29.1037L60.836 30.7312L70.3123 25.4786L69.4102 23.8511ZM66.3477 25.5486L63.0314 27.3868L60.524 22.863L63.8402 21.0249L66.3477 25.5486ZM89.3049 14.6539L92.7042 17.4022L94.6117 16.3449L91.1774 13.616L89.3049 14.6539ZM26.2832 45.9028C26.8827 44.9414 26.8713 43.7238 26.262 42.769L26.0195 42.3315C24.7827 40.1003 22.7901 39.7864 19.9376 41.3675L13.7251 44.811L20.8837 57.726L27.4724 54.074C30.2112 52.5559 30.9438 50.6171 29.6634 48.3071L29.4354 47.8959C28.8594 46.671 27.6349 45.8856 26.2832 45.9028ZM16.4548 45.6085L20.891 43.1496C23.0348 41.9613 23.7794 42.6238 24.2256 43.4288L24.4439 43.8225C24.8464 44.5488 24.9708 45.5779 22.2933 47.062L18.4345 49.2009L16.446 45.6134L16.4548 45.6085ZM27.8298 49.312C28.4797 50.4845 28.0132 51.5209 26.447 52.389L21.6782 55.0323L19.3696 50.8673L23.0009 48.8545C25.9321 47.2298 26.9073 47.6272 27.596 48.8697L27.8385 49.3072L27.8298 49.312ZM66.6448 27.7974L70.6789 30.2053L72.5776 29.1529L68.5523 26.7401L66.6448 27.7974ZM62.8821 30.0889C63.2734 31.3933 63.239 32.7964 62.7694 34.0747L62.5589 34.7061L64.7376 33.4985L64.7698 33.412C65.1909 32.0462 65.1826 30.5867 64.7262 29.2269L64.6449 28.8945L62.8337 29.8984L62.8821 30.0889ZM55.7308 21.6651L55.6047 21.4376L53.9422 22.3591L54.0683 22.5866C55.6736 25.4829 56.1543 27.8358 55.4541 29.3792L55.4054 29.4977L56.6034 31.6589L56.837 31.2549C57.1037 30.7868 57.315 30.2808 57.4496 29.7601L60.7525 35.7188L62.3975 34.807L57.8094 26.5295L57.5906 26.6508C57.2697 24.8956 56.6378 23.1984 55.7308 21.6651ZM32.1818 34.5464L31.4468 34.9538C27.8505 36.9472 27.1056 39.5448 29.0941 43.1323L30.4667 45.6085C32.4503 49.1873 35.0431 49.9234 38.6393 47.9301L39.3743 47.5227C42.9881 45.5196 43.7553 42.9211 41.7717 39.3423L40.3991 36.8661C38.4397 33.3311 35.743 32.5725 32.1818 34.5464ZM39.9692 40.3414C41.3175 42.7739 40.8446 44.3972 38.3859 45.76L37.6509 46.1674C35.1834 47.5351 33.5475 47.0807 32.1992 44.6482L30.8266 42.172C29.4832 39.7482 29.956 38.125 32.4323 36.7524L33.1673 36.345C35.626 34.9822 37.2483 35.4327 38.5966 37.8652L39.9692 40.3414ZM44.5076 27.7487L39.7126 30.4065L46.8712 43.3215L51.6662 40.6637C55.8399 38.3503 56.5972 36.0432 54.4486 32.167L53.1731 29.8657C51.0633 26.0595 48.6337 25.4731 44.5076 27.7487ZM52.6927 33.2089C54.1768 35.8864 53.6741 37.2288 50.5591 38.9554L47.6454 40.5704L42.4704 31.2342L45.3842 29.6191C48.5429 27.8683 49.8846 28.1426 51.3687 30.8201L52.6927 33.2089ZM34.5293 39.6278C33.6631 40.1079 33.3472 41.2095 33.8273 42.0758C34.3075 42.942 35.4091 43.2579 36.2753 42.7778C37.1416 42.2976 37.4575 41.196 36.9773 40.3298C36.4923 39.4548 35.4043 39.1428 34.5293 39.6278Z" fill="white"/>
</svg>
