<svg width="59" height="146" viewBox="0 0 59 146" fill="none" xmlns="http://www.w3.org/2000/svg">
<g clip-path="url(#clip0)">
<path d="M31.0673 142.725C31.0673 142.725 30.9156 145.219 31.2695 145.622C31.6487 146 32.862 146.025 32.862 146.025C32.862 146.025 38.7772 145.496 41.3809 145.647L41.9876 142.826L31.0673 142.725Z" fill="black"/>
<path d="M41.9623 142.423C41.8359 141.491 39.9653 138.065 38.6508 135.798C36.5527 136 34.4546 136.05 32.3565 136.05C32.0026 137.587 30.587 143.859 31.042 144.413C31.5223 145.043 33.7974 144.438 33.7974 144.438C33.7974 144.438 36.0219 143.204 38.0442 143.632C40.0917 144.06 42.1645 143.859 41.9623 142.423Z" fill="#EBDEC8"/>
<path d="M35.7691 144.438C35.5921 144.438 35.4152 144.388 35.2888 144.262C34.6063 143.657 32.5081 142.096 31.2189 141.894C30.8145 141.844 30.5364 141.466 30.587 141.063C30.6375 140.66 31.0167 140.383 31.4212 140.433C32.9126 140.635 34.7327 141.919 35.668 142.65C36.6285 141.491 38.6003 139.3 40.1422 139.022C40.5467 138.947 40.9259 139.224 41.0017 139.627C41.0775 140.03 40.7995 140.408 40.395 140.483C39.4092 140.66 37.4374 142.725 36.3505 144.161C36.2241 144.312 36.0471 144.438 35.8449 144.438C35.8196 144.438 35.7943 144.438 35.7691 144.438Z" fill="black"/>
<path d="M28.135 142.725C28.135 142.725 28.2866 145.219 27.9327 145.622C27.5788 146 26.3402 146.025 26.3402 146.025C26.3402 146.025 20.425 145.496 17.8213 145.647L17.2147 142.826L28.135 142.725Z" fill="black"/>
<path d="M17.2407 142.423C17.3671 141.491 19.2377 138.065 20.5522 135.798C22.6503 136 24.7485 136.05 26.8466 136.05C27.2005 137.587 28.6161 143.859 28.1863 144.413C27.6808 145.043 25.431 144.438 25.431 144.438C25.431 144.438 23.2065 143.204 21.1842 143.632C19.1366 144.06 17.0385 143.859 17.2407 142.423Z" fill="#EBDEC8"/>
<path d="M23.4332 144.438C23.4079 144.438 23.3826 144.438 23.3573 144.438C23.1551 144.413 22.9782 144.312 22.8518 144.161C21.7648 142.75 19.7931 140.66 18.8072 140.483C18.4028 140.408 18.15 140.03 18.2005 139.627C18.2511 139.224 18.6555 138.972 19.06 139.022C20.602 139.299 22.599 141.491 23.5596 142.65C24.4949 141.919 26.3149 140.635 27.8064 140.433C28.2108 140.383 28.59 140.66 28.6406 141.063C28.6911 141.466 28.413 141.844 28.0086 141.894C26.6941 142.07 24.6213 143.657 23.9387 144.262C23.7871 144.388 23.6101 144.438 23.4332 144.438Z" fill="black"/>
<path d="M10.0861 124.11C10.0861 124.11 9.04971 135.546 9.04971 137.839C9.04971 137.839 17.6697 140.03 29.8539 140.03C42.0381 140.03 50.1778 137.839 50.1778 137.839C50.1778 137.839 50.1778 129.098 50.1778 124.11H10.0861Z" fill="#FAF8E4"/>
<path d="M29.8286 140.282C17.7455 140.282 9.04972 138.116 8.97389 138.09C8.87277 138.065 8.79694 137.964 8.79694 137.864C8.79694 135.597 9.80808 124.589 9.83335 124.11C9.83335 123.984 9.95975 123.883 10.0861 123.883H50.1778C50.3042 123.883 50.4306 123.984 50.4306 124.135V137.864C50.4306 137.964 50.3548 138.065 50.2537 138.09C50.1526 138.09 41.9118 140.282 29.8286 140.282ZM9.27723 137.637C10.5917 137.939 18.7819 139.778 29.8286 139.778C40.8501 139.778 48.6358 137.964 49.925 137.637V124.337H10.3136C10.162 125.924 9.32778 135.219 9.27723 137.637Z" fill="#C8C9CA"/>
<path d="M47.7511 54.9137C44.5154 50.4047 41.6337 44.2332 30.0561 44.4348C18.4786 44.2332 14.6868 49.0949 12.0579 53.9817C7.68468 62.0928 6.54715 126.478 6.54715 126.478C6.54715 126.478 16.7849 128.896 29.9045 128.896C43.024 128.896 52.3771 126.478 52.3771 126.478C52.3771 126.478 54.4499 64.2591 47.7511 54.9137Z" fill="#002B3A"/>
<path d="M37.8925 37.9861L34.3535 43.3012L37.8925 45.8202L29.6011 52.0924L21.3098 45.8202L24.8741 43.3012L21.3098 37.9861H37.8925Z" fill="#F7C5AB"/>
<path d="M21.9165 44.1073L20.3997 46.0973L28.7922 52.4703L31.0167 51.0093L21.9165 44.1073Z" fill="#EBDEC8"/>
<path d="M29.677 53.1253L27.7052 51.4627L37.2858 44.4096L38.8278 46.3996L29.677 53.1253Z" fill="#FAF8E4"/>
<path d="M18.7061 67.0048H14.7627L15.9255 52.3191C15.9255 47.6338 21.1581 44.8126 21.1581 44.8126L18.7061 67.0048Z" fill="#F0A01C"/>
<path d="M40.2687 67.0048H44.2374L43.0998 52.3191C43.0998 48.0117 37.8419 44.8126 37.8419 44.8126L40.2687 67.0048Z" fill="#F0A01C"/>
<path d="M39.03 63.9064C36.9825 63.9064 35.3394 62.2691 35.3394 60.2287C35.3394 58.1884 37.0077 56.551 39.03 56.551C41.0523 56.551 42.7207 58.2136 42.7207 60.2287C42.7207 62.2439 41.0776 63.9064 39.03 63.9064ZM39.03 58.9189C38.2969 58.9189 37.7155 59.4982 37.7155 60.2287C37.7155 60.9592 38.2969 61.5386 39.03 61.5386C39.7631 61.5386 40.3445 60.9592 40.3445 60.2287C40.3445 59.4982 39.7631 58.9189 39.03 58.9189Z" fill="#FAF8E4"/>
<path d="M40.5973 51.4879C40.5467 50.0268 39.9906 46.3743 38.575 45.0393L37.8419 44.8126L38.0189 59.4226H40.0917L40.5973 51.4879Z" fill="#EA7B1D"/>
<path d="M18.7061 51.4879C18.7567 50.0268 19.3128 46.3743 20.7284 45.0393L21.4615 44.8126L21.8407 67.0048H17.8972L18.7061 51.4879Z" fill="#EA7B1D"/>
<path d="M37.9431 61.1859L37.2605 67.0048H41.204L40.0664 61.1859H37.9431Z" fill="#EA7B1D"/>
<path d="M44.4649 63.3774H14.7627V87.3077H44.4649V63.3774Z" fill="#F0A01C"/>
<path d="M33.1654 68.1383C33.1654 68.1383 30.9662 63.4279 30.0309 64.108C29.0956 64.7881 29.5253 67.4834 29.5758 68.3147C29.6264 69.1207 29.0956 73.8312 29.8286 74.5869C30.5364 75.3426 34.3029 75.3174 34.3029 75.3174L33.1654 68.1383Z" fill="#F7C5AB"/>
<path d="M43.8329 49.8757C43.8329 49.8757 49.4194 54.9641 50.5822 60.5814C51.8967 66.8788 53.287 76.1991 53.287 76.1991C53.287 76.1991 54.3993 84.0835 56.7249 84.9147C61.4014 86.5773 58.2669 91.9175 52.4529 95.2426C46.6135 98.5424 35.0612 95.7715 32.3312 89.9275C29.6011 84.0583 29.3989 78.5417 29.3989 78.5417C29.3989 78.5417 27.958 71.7405 32.8115 67.8864C32.8115 67.8864 36.5021 66.5766 41.0775 66.7277C41.0775 66.7277 44.1868 60.1028 43.8329 49.8757Z" fill="#0A3241"/>
<path d="M25.8346 68.1383C25.8346 68.1383 28.0338 63.4279 28.9691 64.108C29.9044 64.7881 29.4747 67.4834 29.4242 68.3147C29.3736 69.1207 29.9045 73.8312 29.1714 74.5869C28.4636 75.3426 24.6971 75.3174 24.6971 75.3174L25.8346 68.1383Z" fill="#F7C5AB"/>
<path d="M15.1671 49.8757C15.1671 49.8757 9.58056 54.9641 8.41775 60.5814C7.10327 66.8788 5.71295 76.1991 5.71295 76.1991C5.71295 76.1991 4.57542 84.1087 2.27508 84.9147C-2.40144 86.5773 0.733089 91.9175 6.54714 95.2426C12.3865 98.5424 23.9387 95.7715 26.6688 89.9275C29.3989 84.0583 29.6011 78.5417 29.6011 78.5417C29.6011 78.5417 31.042 71.7405 26.1885 67.8864C26.1885 67.8864 22.4979 66.5766 17.9225 66.7277C17.9225 66.7277 14.8132 60.1028 15.1671 49.8757Z" fill="#0A3241"/>
<path d="M48.2314 27.8347C48.2314 27.8347 51.5935 24.8119 52.5793 28.5904C53.5652 32.3688 52.2254 34.6611 50.4559 36.0717C48.6612 37.5075 45.653 37.2305 45.653 37.2305L48.2314 27.8347Z" fill="#F7C5AB"/>
<path d="M11.8051 27.8347C11.8051 27.8347 8.44304 24.8119 7.45717 28.5904C6.47131 32.3688 7.81107 34.6611 9.58057 36.0717C11.3753 37.5075 14.3835 37.2305 14.3835 37.2305L11.8051 27.8347Z" fill="#F7C5AB"/>
<path d="M42.9229 7.53173C40.2434 4.86161 34.3535 3.52655 30.0308 3.52655C25.6829 3.52655 19.7931 4.86161 17.1388 7.53173C9.45416 15.1642 11.5523 29.7743 11.9062 31.5124C12.7404 35.568 14.1812 41.6387 19.1358 44.5859C24.0904 47.5331 35.9713 47.5331 40.9259 44.5859C45.8805 41.6387 47.3213 35.5428 48.1555 31.5124C48.5094 29.7743 50.5823 15.1642 42.9229 7.53173Z" fill="#FAD9C7"/>
<path d="M42.9229 7.53173C40.2434 4.86161 34.3535 3.52655 30.0309 3.52655C29.5506 3.52655 29.045 3.55174 28.5394 3.57693C32.6598 3.82883 37.5638 5.16389 39.94 7.50654C47.5994 15.139 45.5266 29.7491 45.1727 31.4872C44.3385 35.5428 42.8976 41.6135 37.943 44.5607C35.7691 45.8706 32.2301 46.6011 28.5647 46.7522C33.2412 46.9538 38.1958 46.2232 40.9512 44.5607C45.9058 41.6135 47.3466 35.5176 48.1808 31.4872C48.5094 29.7743 50.5823 15.1642 42.9229 7.53173Z" fill="#F7C5AB"/>
<path d="M38.5244 26.7767C37.6144 26.7767 36.8813 27.5072 36.8813 28.4141C36.8813 29.3209 37.6144 30.0766 38.5244 30.0766C39.4344 30.0766 40.1928 29.3461 40.1928 28.4141C40.1928 27.5072 39.4597 26.7767 38.5244 26.7767Z" fill="black"/>
<path d="M21.5626 26.7767C20.6525 26.7767 19.9195 27.5072 19.9195 28.4141C19.9195 29.3209 20.6525 30.0766 21.5626 30.0766C22.4726 30.0766 23.2309 29.3461 23.2309 28.4141C23.2057 27.5072 22.4726 26.7767 21.5626 26.7767Z" fill="black"/>
<path d="M28.6153 27.5828C28.135 23.628 17.9983 22.5449 15.2429 23.6784C12.4876 24.8119 12.3865 26.4997 12.6393 28.4141C12.9173 30.5804 14.3076 33.0238 20.425 33.2253C25.5818 33.4016 28.8933 29.8751 28.6153 27.5828ZM20.4503 32.2933C15.4705 32.117 14.3329 30.127 14.1054 28.3637C13.9032 26.8019 13.979 25.4417 16.2288 24.5097C18.4786 23.5776 26.7447 24.4845 27.1238 27.6836C27.3513 29.5728 24.6718 32.4444 20.4503 32.2933Z" fill="#595757"/>
<path d="M39.6114 33.2253C45.7288 33.0238 47.1191 30.5804 47.3972 28.4141C47.6499 26.4997 47.5741 24.8119 44.7935 23.6784C42.0128 22.5449 31.8762 23.628 31.4212 27.5828C31.1431 29.8751 34.4546 33.4016 39.6114 33.2253ZM32.9126 27.6836C33.2918 24.4593 41.5578 23.5776 43.8076 24.5097C46.0574 25.4417 46.1079 26.8019 45.931 28.3637C45.7035 30.127 44.566 32.117 39.5861 32.2933C35.3646 32.4444 32.6851 29.5728 32.9126 27.6836Z" fill="#595757"/>
<path d="M31.6993 26.8523H27.7053V28.4141H31.6993V26.8523Z" fill="#595757"/>
<path d="M30.0056 28.7415L27.6041 33.7291H32.4323L30.0056 28.7415Z" fill="#F7C5AB"/>
<path d="M24.874 8.48892C24.0398 10.882 27.1238 19.3709 39.8136 22.4189C50.835 25.089 47.6752 33.7291 46.2344 39.422L41.4567 45.6439C41.4567 45.6439 46.0321 43.9813 47.5994 42.0417C47.5994 42.0417 49.6217 44.8126 53.5399 45.0141C53.5399 45.0141 51.012 40.0265 52.7057 37.2557C56.1183 31.5628 57.5086 10.0759 44.4649 3.52654C28.5394 -4.43344 23.1045 3.52654 23.1045 3.52654C23.1045 3.52654 20.9811 0.780848 14.889 4.63489C11.6028 6.70045 -0.530849 21.235 5.38432 33.7291C11.2995 46.2232 9.52999 44.7118 7.6341 45.3164C7.6341 45.3164 14.1812 47.1804 14.3582 42.5959L12.7656 46.7774C12.7656 46.7774 18.9589 46.0721 17.5433 40.9334C16.1277 35.7947 14.6362 36.0466 13.524 29.3209C12.2348 21.4617 14.8638 15.6932 24.874 8.48892Z" fill="#595757"/>
<path d="M27.4777 39.2708C26.5172 39.2708 25.7335 38.7167 25.3796 38.2381C25.2532 38.0617 25.3038 37.835 25.4555 37.7091C25.6324 37.5831 25.8599 37.6335 25.9863 37.7846C26.2896 38.1877 27.0986 38.7167 28.0339 38.4144C28.5142 38.2633 28.7922 38.1121 29.045 37.961C29.3231 37.8098 29.5758 37.6587 29.955 37.6083C30.4606 37.5328 30.8145 37.8098 31.1178 38.0365C31.3201 38.1877 31.5223 38.3388 31.7245 38.364C32.8368 38.4648 34.1007 38.1877 34.581 37.7091C34.7074 37.5831 34.7832 37.432 34.7579 37.306C34.7327 37.1045 34.8843 36.9282 35.1118 36.903C35.3141 36.8778 35.491 37.029 35.5163 37.2557C35.5416 37.6335 35.4152 37.9862 35.1118 38.2633C34.3788 38.9686 32.8115 39.2457 31.6487 39.1197C31.2189 39.0693 30.9156 38.8426 30.6628 38.6663C30.41 38.4648 30.2584 38.364 30.0561 38.3892C29.8034 38.4144 29.6517 38.5151 29.3989 38.6411C29.1461 38.7922 28.7922 38.9686 28.2614 39.1449C28.0086 39.2205 27.7305 39.2708 27.4777 39.2708Z" fill="#91181E"/>
<path d="M26.4413 21.7136C26.871 21.9151 26.0874 22.8975 25.7082 22.8471C25.329 22.7967 20.5767 21.6128 18.0741 21.4869C16.2035 21.3861 14.7626 21.9151 14.7626 21.9151C14.7626 21.9151 20.2986 18.7412 26.4413 21.7136Z" fill="#595757"/>
<path d="M33.1654 21.7136C32.7356 21.9151 33.5193 22.8975 33.8985 22.8471C34.2776 22.7967 39.03 21.6128 41.5326 21.4869C43.4284 21.3861 44.844 21.9151 44.844 21.9151C44.844 21.9151 39.2828 18.7412 33.1654 21.7136Z" fill="#595757"/>
</g>
<defs>
<clipPath id="clip0">
<rect width="59" height="146" fill="white"/>
</clipPath>
</defs>
</svg>
