<svg viewBox="0 0 683 127" fill="none" xmlns="http://www.w3.org/2000/svg">
<g filter="url(#filter0_d)">
<path d="M350.615 0.38751H330.053C323.682 13.5629 308.333 32.5508 297.231 41.0761L288.833 72.5612C294.818 67.7174 296.942 65.8767 301.286 61.5172L285.84 119.45H305.244L327.929 34.1009C337.39 23.0568 344.244 12.9816 350.615 0.38751ZM503.816 34.3915H545.326L548.705 21.7974H507.195L507.967 18.8911H553.049L556.235 6.68455H536.155L542.43 0.290633H519.069L512.504 6.68455H490.977L488.66 0.290633H463.561L466.168 6.68455H446.474L443.192 18.8911H486.826L486.054 21.7974H445.895L442.516 34.3915H482.578L481.806 37.1041H434.311L430.836 50.0857H460.472C452.073 54.4452 443.385 57.5452 427.747 61.8078L423.306 78.5677C431.994 76.727 433.346 76.3395 442.034 73.7238L434.311 102.69H421.761L417.128 120.128C448.115 119.45 455.259 118.966 478.331 115.575L479.779 110.15C499.955 117.512 505.747 118.772 528.143 121L532.68 103.95C526.405 103.562 525.537 103.562 518.972 102.884L528.336 93.293H517.331C521.772 90.2898 522.834 88.8367 524.282 83.799L526.985 73.53C533.163 75.2738 534.128 75.4676 540.306 76.4363L544.747 59.7734C536.059 58.9015 524.957 54.2514 520.517 49.8919H547.45L550.925 36.9103H503.14L503.816 34.3915ZM486.923 50.1825H493.197C494.935 52.1201 495.225 52.4107 496.962 54.7358H480.841C483.737 52.6045 484.22 52.4107 486.923 50.1825ZM477.173 56.8671L476.014 61.3235H469.739C473.408 59.1922 473.89 58.9015 477.173 56.8671ZM455.163 102.012L457.19 94.5524C460.762 97.8463 461.341 98.3307 465.395 101.528L455.163 102.012ZM497.928 99.4932C491.749 97.265 490.687 96.9744 485.668 94.5524H503.623L497.928 99.4932ZM503.913 83.8959H459.893L460.665 80.9896H504.685L503.913 83.8959ZM506.809 73.1425H462.789L463.658 69.7518H507.678L506.809 73.1425ZM504.202 61.3235H496.093L497.541 55.8014C500.341 58.3203 500.824 58.7078 504.202 61.3235ZM672.077 52.217L677 33.6165H632.497L634.332 26.9319H671.98L676.903 8.52522H639.255L641.572 0H619.079L616.762 8.42834H578.052L573.128 26.8351H611.839L610.005 33.5196H564.054L559.227 52.217H631.629L629.891 58.8046H557.49L552.47 77.4051H624.871L618.886 100.074H602.089L596.683 120.322H615.797C630.47 120.612 637.903 114.509 641.186 99.7838L647.171 77.4051H665.512L670.436 58.8046H652.094L653.832 52.217H672.077ZM568.495 79.7302L563.185 99.5901C573.708 101.818 581.913 104.24 592.918 108.406L598.614 87.0929C585.774 83.024 579.5 81.474 568.495 79.7302ZM131.384 77.0176L140.362 43.1105H156.676L147.699 77.0176H180.424L198.379 9.30024H181.872L184.092 0.77502H135.052L132.832 9.30024H116.518L98.5623 77.0176H131.384ZM149.34 9.20336H165.654L158.897 34.5853H142.582L149.34 9.20336ZM272.132 9.20336L274.352 0.678142H209.095L188.919 76.9207H254.177L256.397 68.4924H272.904L288.543 9.20336H272.132ZM240.083 68.4924H223.865L239.6 9.20336H255.914L240.083 68.4924ZM75.9731 68.4924H92.4806L99.238 43.1105H82.7305L84.9508 34.6821H101.458L108.216 9.30024H91.7083L93.9286 0.77502H28.6709L8.39857 77.0176H73.6562L75.9731 68.4924ZM59.6587 68.4924H43.4408L50.1982 43.1105H66.5126L59.6587 68.4924ZM52.4185 34.6821L59.176 9.30024H75.4904L68.733 34.6821H52.4185ZM120.379 92.8087C125.496 94.1649 132.156 96.2962 138.045 98.4275L140.072 91.1617C136.694 89.8054 129.357 87.4804 122.31 85.6397L120.379 92.8087ZM164.303 87.4804L162.565 93.5837H193.167L194.035 90.5805H187.568L188.436 87.3835H164.303V87.4804ZM200.117 83.3147H196.159L194.518 89.4179H198.476L200.117 83.3147ZM189.112 89.4179H193.07L194.711 83.3147H190.753L189.112 89.4179ZM197.993 106.081H225.216L227.147 99.2994H199.924L197.993 106.081ZM35.8145 92.518L37.7452 85.3491H30.2155L28.2848 92.518H8.01243L6.27481 98.7182H19.5966L10.0397 108.793C7.6263 111.409 5.40599 112.281 1.93073 112.378L3.05176e-05 119.45C6.95055 119.159 10.8119 117.416 15.4456 112.281L25.6783 101.625L20.4654 120.322H27.9952L33.9804 98.8151H42.0893L43.8269 92.6149H35.8145V92.518ZM232.456 99.2026L230.526 106.275C238.441 104.434 243.944 99.9776 246.937 92.9055H262.382L260.548 99.5901H243.172L241.338 106.178H258.617C256.3 111.022 252.149 113.056 245.006 112.959H230.139L228.305 119.644H242.979C256.88 119.644 264.216 114.509 267.305 102.593L271.843 86.3179H242.399C239.407 94.5524 236.897 97.8463 232.456 99.2026ZM148.954 89.0304L145.189 102.593C144.127 106.275 141.327 109.375 137.852 110.828C135.535 111.894 131.288 112.572 126.268 112.572H114.491L112.56 119.547H124.241C133.218 119.45 138.142 118.384 142.582 115.672C147.892 112.572 150.981 108.115 153.008 101.043L156.387 88.9335H148.954V89.0304ZM157.449 103.853H171.832L170.674 107.922C169.515 111.99 167.006 113.54 162.082 113.347H156.869L155.035 119.934H162.275C170.095 120.128 175.79 115.769 178.107 108.018L179.266 103.756H193.263L195.001 97.4588H159.186L157.449 103.853ZM45.5645 99.2026L43.6339 105.984H70.8567L72.7874 99.2026H45.5645ZM106.382 87.8679H79.5449L77.7107 94.5524H103.099L101.651 99.9776C98.9484 109.859 94.6043 113.444 84.7578 113.444H74.1389L72.3047 120.031H84.082C97.5004 120.031 105.223 114.412 108.698 102.109L110.822 94.2618C106.864 94.0681 105.32 91.8399 106.382 87.8679ZM117.097 88.4492C117.773 85.9304 116.132 83.7022 113.525 83.7022C110.726 83.7022 107.926 85.8335 107.154 88.4492C106.478 91.0649 108.119 93.1962 110.822 93.1962C113.525 93.1962 116.421 91.0649 117.097 88.4492ZM114.008 88.4492C113.718 89.5148 112.656 90.2898 111.594 90.2898C110.629 90.2898 109.953 89.4179 110.243 88.4492C110.533 87.4804 111.594 86.6085 112.656 86.6085C113.622 86.6085 114.297 87.4804 114.008 88.4492ZM328.509 62.1954H343.085L348.491 41.948H337.776L343.278 21.4099H353.994L359.4 1.16253H379.865L374.459 21.3131H389.615L395.021 1.06565H416.935L411.529 21.3131H421.761L416.259 41.8511H406.123L400.717 62.0985H414.328L408.729 83.2178H395.697C394.828 94.5524 396.469 107.534 400.62 119.934H375.232C373.204 105.209 372.915 97.1681 373.88 83.2178H358.434C353.318 94.94 346.368 107.631 338.355 119.934H314.221C324.068 108.6 331.212 97.265 337.486 83.2178H322.91L328.509 62.1954ZM378.803 62.1954L384.209 41.948H369.053L363.647 62.1954H378.803Z" fill="#EBFF00"/>
</g>
<defs>
<filter id="filter0_d" x="3.05176e-05" y="0" filterUnits="userSpaceOnUse" color-interpolation-filters="sRGB">
<feFlood flood-opacity="0" result="BackgroundImageFix"/>
<feColorMatrix in="SourceAlpha" type="matrix" values="0 0 0 0 0 0 0 0 0 0 0 0 0 0 0 0 0 0 127 0"/>
<feOffset dx="6" dy="6"/>
<feColorMatrix type="matrix" values="0 0 0 0 0 0 0 0 0 0 0 0 0 0 0 0 0 0 1 0"/>
<feBlend mode="normal" in2="BackgroundImageFix" result="effect1_dropShadow"/>
<feBlend mode="normal" in="SourceGraphic" in2="effect1_dropShadow" result="shape"/>
</filter>
</defs>
</svg>
